<svg xmlns="http://www.w3.org/2000/svg" xmlns:xlink="http://www.w3.org/1999/xlink" width="500" zoomAndPan="magnify" viewBox="0 0 375 141.750002" height="189" preserveAspectRatio="xMidYMid meet" version="1.0"><defs><g/></defs><g fill="#28ff0d" fill-opacity="0.302"><g transform="translate(42.440961, 107.324019)"><g><path d="M 14.796875 0 L 14.796875 -69.84375 L 1.78125 -69.84375 L 1.78125 -82.265625 L 40.84375 -82.265625 L 40.84375 -69.84375 L 27.8125 -69.84375 L 27.8125 0 Z M 14.796875 0 "/></g></g></g><g fill="#28ff0d" fill-opacity="0.302"><g transform="translate(85.055343, 107.324019)"><g><path d="M 40.84375 -82.265625 L 40.84375 -11.25 C 40.84375 -8.09375 39.796875 -5.425781 37.703125 -3.25 C 35.609375 -1.082031 33.101562 0 30.1875 0 L 15.390625 0 C 12.472656 0 9.96875 -1.101562 7.875 -3.3125 C 5.78125 -5.519531 4.734375 -8.164062 4.734375 -11.25 L 4.734375 -82.265625 L 17.75 -82.265625 L 17.75 -12.421875 L 27.8125 -12.421875 L 27.8125 -82.265625 Z M 40.84375 -82.265625 "/></g></g></g><g fill="#28ff0d" fill-opacity="0.302"><g transform="translate(130.629063, 107.324019)"><g><path d="M 4.734375 0 L 4.734375 -82.265625 L 30.1875 -82.265625 C 33.101562 -82.265625 35.609375 -81.179688 37.703125 -79.015625 C 39.796875 -76.847656 40.84375 -74.1875 40.84375 -71.03125 L 40.84375 -11.25 C 40.84375 -8.09375 39.796875 -5.425781 37.703125 -3.25 C 35.609375 -1.082031 33.101562 0 30.1875 0 Z M 27.8125 -12.421875 L 27.8125 -69.84375 L 17.75 -69.84375 L 17.75 -12.421875 Z M 27.8125 -12.421875 "/></g></g></g><g fill="#28ff0d" fill-opacity="0.302"><g transform="translate(176.202783, 107.324019)"><g><path d="M 40.84375 -71.03125 L 40.84375 -11.25 C 40.84375 -8.09375 39.796875 -5.425781 37.703125 -3.25 C 35.609375 -1.082031 33.101562 0 30.1875 0 L 15.390625 0 C 12.472656 0 9.96875 -1.101562 7.875 -3.3125 C 5.78125 -5.519531 4.734375 -8.164062 4.734375 -11.25 L 4.734375 -71.03125 C 4.734375 -74.1875 5.78125 -76.847656 7.875 -79.015625 C 9.96875 -81.179688 12.472656 -82.265625 15.390625 -82.265625 L 30.1875 -82.265625 C 33.101562 -82.265625 35.609375 -81.179688 37.703125 -79.015625 C 39.796875 -76.847656 40.84375 -74.1875 40.84375 -71.03125 Z M 27.8125 -12.421875 L 27.8125 -69.84375 L 17.75 -69.84375 L 17.75 -12.421875 Z M 27.8125 -12.421875 "/></g></g></g><g fill="#28ff0d" fill-opacity="0.502"><g transform="translate(38.540822, 104.385053)"><g><path d="M 14.796875 0 L 14.796875 -69.84375 L 1.78125 -69.84375 L 1.78125 -82.265625 L 40.84375 -82.265625 L 40.84375 -69.84375 L 27.8125 -69.84375 L 27.8125 0 Z M 14.796875 0 "/></g></g></g><g fill="#28ff0d" fill-opacity="0.502"><g transform="translate(81.155204, 104.385053)"><g><path d="M 40.84375 -82.265625 L 40.84375 -11.25 C 40.84375 -8.09375 39.796875 -5.425781 37.703125 -3.25 C 35.609375 -1.082031 33.101562 0 30.1875 0 L 15.390625 0 C 12.472656 0 9.96875 -1.101562 7.875 -3.3125 C 5.78125 -5.519531 4.734375 -8.164062 4.734375 -11.25 L 4.734375 -82.265625 L 17.75 -82.265625 L 17.75 -12.421875 L 27.8125 -12.421875 L 27.8125 -82.265625 Z M 40.84375 -82.265625 "/></g></g></g><g fill="#28ff0d" fill-opacity="0.502"><g transform="translate(126.728924, 104.385053)"><g><path d="M 4.734375 0 L 4.734375 -82.265625 L 30.1875 -82.265625 C 33.101562 -82.265625 35.609375 -81.179688 37.703125 -79.015625 C 39.796875 -76.847656 40.84375 -74.1875 40.84375 -71.03125 L 40.84375 -11.25 C 40.84375 -8.09375 39.796875 -5.425781 37.703125 -3.25 C 35.609375 -1.082031 33.101562 0 30.1875 0 Z M 27.8125 -12.421875 L 27.8125 -69.84375 L 17.75 -69.84375 L 17.75 -12.421875 Z M 27.8125 -12.421875 "/></g></g></g><g fill="#28ff0d" fill-opacity="0.502"><g transform="translate(172.302644, 104.385053)"><g><path d="M 40.84375 -71.03125 L 40.84375 -11.25 C 40.84375 -8.09375 39.796875 -5.425781 37.703125 -3.25 C 35.609375 -1.082031 33.101562 0 30.1875 0 L 15.390625 0 C 12.472656 0 9.96875 -1.101562 7.875 -3.3125 C 5.78125 -5.519531 4.734375 -8.164062 4.734375 -11.25 L 4.734375 -71.03125 C 4.734375 -74.1875 5.78125 -76.847656 7.875 -79.015625 C 9.96875 -81.179688 12.472656 -82.265625 15.390625 -82.265625 L 30.1875 -82.265625 C 33.101562 -82.265625 35.609375 -81.179688 37.703125 -79.015625 C 39.796875 -76.847656 40.84375 -74.1875 40.84375 -71.03125 Z M 27.8125 -12.421875 L 27.8125 -69.84375 L 17.75 -69.84375 L 17.75 -12.421875 Z M 27.8125 -12.421875 "/></g></g></g><g fill="#0057ff" fill-opacity="1"><g transform="translate(34.640683, 101.446087)"><g><path d="M 14.796875 0 L 14.796875 -69.84375 L 1.78125 -69.84375 L 1.78125 -82.265625 L 40.84375 -82.265625 L 40.84375 -69.84375 L 27.8125 -69.84375 L 27.8125 0 Z M 14.796875 0 "/></g></g></g><g fill="#0057ff" fill-opacity="1"><g transform="translate(77.255065, 101.446087)"><g><path d="M 40.84375 -82.265625 L 40.84375 -11.25 C 40.84375 -8.09375 39.796875 -5.425781 37.703125 -3.25 C 35.609375 -1.082031 33.101562 0 30.1875 0 L 15.390625 0 C 12.472656 0 9.96875 -1.101562 7.875 -3.3125 C 5.78125 -5.519531 4.734375 -8.164062 4.734375 -11.25 L 4.734375 -82.265625 L 17.75 -82.265625 L 17.75 -12.421875 L 27.8125 -12.421875 L 27.8125 -82.265625 Z M 40.84375 -82.265625 "/></g></g></g><g fill="#0057ff" fill-opacity="1"><g transform="translate(122.828785, 101.446087)"><g><path d="M 4.734375 0 L 4.734375 -82.265625 L 30.1875 -82.265625 C 33.101562 -82.265625 35.609375 -81.179688 37.703125 -79.015625 C 39.796875 -76.847656 40.84375 -74.1875 40.84375 -71.03125 L 40.84375 -11.25 C 40.84375 -8.09375 39.796875 -5.425781 37.703125 -3.25 C 35.609375 -1.082031 33.101562 0 30.1875 0 Z M 27.8125 -12.421875 L 27.8125 -69.84375 L 17.75 -69.84375 L 17.75 -12.421875 Z M 27.8125 -12.421875 "/></g></g></g><g fill="#0057ff" fill-opacity="1"><g transform="translate(168.402506, 101.446087)"><g><path d="M 40.84375 -71.03125 L 40.84375 -11.25 C 40.84375 -8.09375 39.796875 -5.425781 37.703125 -3.25 C 35.609375 -1.082031 33.101562 0 30.1875 0 L 15.390625 0 C 12.472656 0 9.96875 -1.101562 7.875 -3.3125 C 5.78125 -5.519531 4.734375 -8.164062 4.734375 -11.25 L 4.734375 -71.03125 C 4.734375 -74.1875 5.78125 -76.847656 7.875 -79.015625 C 9.96875 -81.179688 12.472656 -82.265625 15.390625 -82.265625 L 30.1875 -82.265625 C 33.101562 -82.265625 35.609375 -81.179688 37.703125 -79.015625 C 39.796875 -76.847656 40.84375 -74.1875 40.84375 -71.03125 Z M 27.8125 -12.421875 L 27.8125 -69.84375 L 17.75 -69.84375 L 17.75 -12.421875 Z M 27.8125 -12.421875 "/></g></g></g><g fill="#28ff0d" fill-opacity="0.302"><g transform="translate(221.784809, 107.324019)"><g><path d="M 17.75 0 L 4.734375 0 L 4.734375 -71.03125 C 4.734375 -74.1875 5.78125 -76.847656 7.875 -79.015625 C 9.96875 -81.179688 12.472656 -82.265625 15.390625 -82.265625 L 36.109375 -82.265625 L 36.109375 -69.84375 L 17.75 -69.84375 L 17.75 -47.703125 L 36.109375 -57.171875 L 36.109375 -42.609375 L 17.75 -33.140625 Z M 17.75 0 "/></g></g></g><g fill="#28ff0d" fill-opacity="0.302"><g transform="translate(259.664264, 107.324019)"><g><path d="M 40.84375 -82.265625 L 40.84375 -11.25 C 40.84375 -8.09375 39.796875 -5.425781 37.703125 -3.25 C 35.609375 -1.082031 33.101562 0 30.1875 0 L 15.390625 0 C 12.472656 0 9.96875 -1.101562 7.875 -3.3125 C 5.78125 -5.519531 4.734375 -8.164062 4.734375 -11.25 L 4.734375 -82.265625 L 17.75 -82.265625 L 17.75 -12.421875 L 27.8125 -12.421875 L 27.8125 -82.265625 Z M 40.84375 -82.265625 "/></g></g></g><g fill="#28ff0d" fill-opacity="0.302"><g transform="translate(305.237984, 107.324019)"><g><path d="M 14.796875 0 L 14.796875 -69.84375 L 1.78125 -69.84375 L 1.78125 -82.265625 L 40.84375 -82.265625 L 40.84375 -69.84375 L 27.8125 -69.84375 L 27.8125 0 Z M 14.796875 0 "/></g></g></g><g fill="#28ff0d" fill-opacity="0.502"><g transform="translate(217.88467, 104.385053)"><g><path d="M 17.75 0 L 4.734375 0 L 4.734375 -71.03125 C 4.734375 -74.1875 5.78125 -76.847656 7.875 -79.015625 C 9.96875 -81.179688 12.472656 -82.265625 15.390625 -82.265625 L 36.109375 -82.265625 L 36.109375 -69.84375 L 17.75 -69.84375 L 17.75 -47.703125 L 36.109375 -57.171875 L 36.109375 -42.609375 L 17.75 -33.140625 Z M 17.75 0 "/></g></g></g><g fill="#28ff0d" fill-opacity="0.502"><g transform="translate(255.764125, 104.385053)"><g><path d="M 40.84375 -82.265625 L 40.84375 -11.25 C 40.84375 -8.09375 39.796875 -5.425781 37.703125 -3.25 C 35.609375 -1.082031 33.101562 0 30.1875 0 L 15.390625 0 C 12.472656 0 9.96875 -1.101562 7.875 -3.3125 C 5.78125 -5.519531 4.734375 -8.164062 4.734375 -11.25 L 4.734375 -82.265625 L 17.75 -82.265625 L 17.75 -12.421875 L 27.8125 -12.421875 L 27.8125 -82.265625 Z M 40.84375 -82.265625 "/></g></g></g><g fill="#28ff0d" fill-opacity="0.502"><g transform="translate(301.337845, 104.385053)"><g><path d="M 14.796875 0 L 14.796875 -69.84375 L 1.78125 -69.84375 L 1.78125 -82.265625 L 40.84375 -82.265625 L 40.84375 -69.84375 L 27.8125 -69.84375 L 27.8125 0 Z M 14.796875 0 "/></g></g></g><g fill="#093902" fill-opacity="1"><g transform="translate(213.984532, 101.446087)"><g><path d="M 17.75 0 L 4.734375 0 L 4.734375 -71.03125 C 4.734375 -74.1875 5.78125 -76.847656 7.875 -79.015625 C 9.96875 -81.179688 12.472656 -82.265625 15.390625 -82.265625 L 36.109375 -82.265625 L 36.109375 -69.84375 L 17.75 -69.84375 L 17.75 -47.703125 L 36.109375 -57.171875 L 36.109375 -42.609375 L 17.75 -33.140625 Z M 17.75 0 "/></g></g></g><g fill="#093902" fill-opacity="1"><g transform="translate(251.863986, 101.446087)"><g><path d="M 40.84375 -82.265625 L 40.84375 -11.25 C 40.84375 -8.09375 39.796875 -5.425781 37.703125 -3.25 C 35.609375 -1.082031 33.101562 0 30.1875 0 L 15.390625 0 C 12.472656 0 9.96875 -1.101562 7.875 -3.3125 C 5.78125 -5.519531 4.734375 -8.164062 4.734375 -11.25 L 4.734375 -82.265625 L 17.75 -82.265625 L 17.75 -12.421875 L 27.8125 -12.421875 L 27.8125 -82.265625 Z M 40.84375 -82.265625 "/></g></g></g><g fill="#093902" fill-opacity="1"><g transform="translate(297.437706, 101.446087)"><g><path d="M 14.796875 0 L 14.796875 -69.84375 L 1.78125 -69.84375 L 1.78125 -82.265625 L 40.84375 -82.265625 L 40.84375 -69.84375 L 27.8125 -69.84375 L 27.8125 0 Z M 14.796875 0 "/></g></g></g></svg>